<?xml version="1.0" encoding="UTF-8"?>
<svg xmlns="http://www.w3.org/2000/svg" xmlns:xlink="http://www.w3.org/1999/xlink" height="800px" width="800px" version="1.1" id="Layer_1" viewBox="0 0 512 512" xml:space="preserve">
  <defs>
    <linearGradient id="blueGradient" x1="0%" y1="0%" x2="100%" y2="100%">
      <stop offset="0%" style="stop-color:#1e40af"/>
      <stop offset="25%" style="stop-color:#2563eb"/>
      <stop offset="50%" style="stop-color:#3b82f6"/>
      <stop offset="75%" style="stop-color:#60a5fa"/>
      <stop offset="100%" style="stop-color:#93c5fd"/>
    </linearGradient>
  </defs>
  <path style="fill:url(#blueGradient);" d="M256,0C114.608,0,0,114.608,0,256s114.608,256,256,256s256-114.608,256-256S397.392,0,256,0z   M179.664,202.064l-125.04,62.672v0.672l125.04,62.672v22.064l-148.4-76.432v-17.264l148.4-76.432V202.064z M221.872,362.928h-21.44  l89.232-231.872h21.728L221.872,362.928z M331.568,350.128v-22.064l126-62.672v-0.672l-126-62.672V180l148.4,76.096v17.936  L331.568,350.128z"/>
</svg>
