<?xml version="1.0" encoding="UTF-8"?>
<svg width="512" height="512" viewBox="0 0 512 512" xmlns="http://www.w3.org/2000/svg">
  <defs>
    <linearGradient id="mainGradient" x1="0%" y1="0%" x2="100%" y2="100%">
      <stop offset="0%" style="stop-color:#172554"/>
      <stop offset="25%" style="stop-color:#1e40af"/>
      <stop offset="50%" style="stop-color:#2563eb"/>
      <stop offset="75%" style="stop-color:#3b82f6"/>
      <stop offset="100%" style="stop-color:#60a5fa"/>
    </linearGradient>
    <linearGradient id="accentGradient" x1="0%" y1="0%" x2="100%" y2="100%">
      <stop offset="0%" style="stop-color:#0ea5e9"/>
      <stop offset="50%" style="stop-color:#38bdf8"/>
      <stop offset="100%" style="stop-color:#7dd3fc"/>
    </linearGradient>
    <linearGradient id="lightGradient" x1="0%" y1="0%" x2="100%" y2="100%">
      <stop offset="0%" style="stop-color:#bae6fd"/>
      <stop offset="100%" style="stop-color:#ffffff"/>
    </linearGradient>
  </defs>
  <circle cx="256" cy="256" r="240" fill="url(#mainGradient)" opacity="0.95"/>
  <circle cx="256" cy="256" r="200" fill="none" stroke="url(#lightGradient)" stroke-width="2" opacity="0.6"/>
  <g stroke="white" stroke-width="8" stroke-linecap="round" stroke-linejoin="round" fill="none">
    <path d="M 180 200 L 140 240 L 140 256 L 140 272 L 180 312"/>
    <path d="M 332 200 L 372 240 L 372 256 L 372 272 L 332 312"/>
  </g>
  <line x1="230" y1="190" x2="282" y2="322" stroke="url(#accentGradient)" stroke-width="6" stroke-linecap="round"/>
  <g opacity="0.8">
    <circle cx="200" cy="160" r="3" fill="white"/>
    <circle cx="220" cy="160" r="3" fill="url(#lightGradient)"/>
    <circle cx="240" cy="160" r="3" fill="white"/>
    <circle cx="272" cy="160" r="3" fill="url(#lightGradient)"/>
    <circle cx="292" cy="160" r="3" fill="white"/>
    <circle cx="312" cy="160" r="3" fill="url(#lightGradient)"/>
    <circle cx="200" cy="352" r="3" fill="url(#lightGradient)"/>
    <circle cx="220" cy="352" r="3" fill="white"/>
    <circle cx="240" cy="352" r="3" fill="url(#lightGradient)"/>
    <circle cx="272" cy="352" r="3" fill="white"/>
    <circle cx="292" cy="352" r="3" fill="url(#lightGradient)"/>
    <circle cx="312" cy="352" r="3" fill="white"/>
  </g>
  <g transform="translate(360, 150)" opacity="0.9">
    <ellipse cx="0" cy="0" rx="16" ry="12" fill="url(#accentGradient)"/>
    <circle cx="-6" cy="-3" r="2" fill="white"/>
    <circle cx="6" cy="-3" r="2" fill="white"/>
    <path d="M -12 3 L -18 8 M 12 3 L 18 8" stroke="white" stroke-width="2" stroke-linecap="round"/>
    <path d="M -12 -2 L -18 -7 M 12 -2 L 18 -7" stroke="white" stroke-width="2" stroke-linecap="round"/>
  </g>
  <rect x="300" y="246" width="3" height="20" fill="white">
    <animate attributeName="opacity" values="1;0.3;1" dur="1.2s" repeatCount="indefinite"/>
  </rect>
  <g opacity="0.4" stroke="white" stroke-width="2" stroke-linecap="round">
    <line x1="160" y1="220" x2="185" y2="220"/>
    <line x1="160" y1="235" x2="175" y2="235"/>
    <line x1="160" y1="250" x2="190" y2="250"/>
    <line x1="160" y1="265" x2="180" y2="265"/>
    <line x1="160" y1="280" x2="185" y2="280"/>
    <line x1="327" y1="220" x2="352" y2="220"/>
    <line x1="337" y1="235" x2="352" y2="235"/>
    <line x1="322" y1="250" x2="352" y2="250"/>
    <line x1="332" y1="265" x2="352" y2="265"/>
    <line x1="327" y1="280" x2="352" y2="280"/>
  </g>
  <circle cx="256" cy="256" r="5" fill="white" opacity="0.7"/>
  <g transform="translate(256, 380)" text-anchor="middle" opacity="0.25">
    <text x="0" y="0" font-family="Arial, sans-serif" font-size="14" font-weight="bold" fill="white">DEBUGIFY</text>
  </g>
</svg>